<svg height="512" viewBox="0 0 128 128" width="512" xmlns="http://www.w3.org/2000/svg"><g><g><path d="m101.571 126.253h-10v-18.171a40.908 40.908 0 0 0 -29.04-39.3 50.855 50.855 0 0 1 -36.1-48.861v-18.174h10v18.171a40.908 40.908 0 0 0 29.04 39.3 50.854 50.854 0 0 1 36.1 48.861z" fill="#b6baf2"/><g fill="#7c84e8"><path d="m62.531 68.779a51.746 51.746 0 0 1 -10.898-4.779 50.812 50.812 0 0 0 -25.2 44.082v18.171h10v-18.171a40.892 40.892 0 0 1 27.567-38.819c-.485-.169-.974-.332-1.469-.484z"/><path d="m91.571 1.747v18.171a40.892 40.892 0 0 1 -27.571 38.819c.485.169.974.332 1.469.484a51.746 51.746 0 0 1 10.898 4.779 50.812 50.812 0 0 0 25.2-44.082v-18.171z"/></g><g fill="#52dddc"><path d="m42.8 41.989h42.4a40.764 40.764 0 0 0 3.927-8h-50.244a40.79 40.79 0 0 0 3.917 8z"/><path d="m36.429 19.918q0 .88.037 1.75h55.067c.024-.58.038-1.163.038-1.75v-6.25h-55.142z"/><path d="m42.8 86.005h42.4a40.764 40.764 0 0 1 3.927 8h-50.244a40.79 40.79 0 0 1 3.917-8z"/><path d="m36.429 108.076q0-.879.037-1.75h55.067c.024.581.038 1.164.038 1.75v6.25h-55.142z"/></g></g><g><path d="m103.321 19.918v-18.171a1.751 1.751 0 0 0 -1.75-1.747h-10a1.751 1.751 0 0 0 -1.75 1.75v10.168h-18.7a1.75 1.75 0 0 0 0 3.5h18.7v4.5h-51.642v-4.5h9.884a1.75 1.75 0 0 0 0-3.5h-9.884v-10.171a1.751 1.751 0 0 0 -1.75-1.747h-10a1.751 1.751 0 0 0 -1.75 1.75v18.168a52.566 52.566 0 0 0 23.636 44.088 52.207 52.207 0 0 0 -23.636 44.076v18.171a1.751 1.751 0 0 0 1.75 1.75h10a1.751 1.751 0 0 0 1.75-1.75v-10.177h51.642v10.177a1.751 1.751 0 0 0 1.75 1.75h10a1.751 1.751 0 0 0 1.75-1.75v-18.171a53.064 53.064 0 0 0 -3.373-18.706 1.75 1.75 0 1 0 -3.277 1.229 49.579 49.579 0 0 1 3.15 17.477v16.418h-6.5v-16.424c0-.024 0-.047 0-.071a43.134 43.134 0 0 0 -2.54-14.547c0-.015 0-.032-.011-.047-.018-.051-.041-.1-.059-.151a42.838 42.838 0 0 0 -1.711-4.026c-.035-.071-.07-.142-.106-.213a42.672 42.672 0 0 0 -25.849-21.915 49.114 49.114 0 0 1 -34.866-47.188v-16.418h6.5v16.418q0 .915.039 1.82a42.635 42.635 0 0 0 30.237 39.156 49.41 49.41 0 0 1 27.068 20.442 1.75 1.75 0 1 0 2.944-1.891 52.5 52.5 0 0 0 -15.3-15.437 52.21 52.21 0 0 0 23.654-44.09zm-68.642 104.582h-6.5v-16.418a48.747 48.747 0 0 1 23.5-42.043 53.391 53.391 0 0 0 7.352 3.387 42.784 42.784 0 0 0 -17.421 15.3 1.736 1.736 0 0 0 -.281.338 42.551 42.551 0 0 0 -4.087 8.344 1.633 1.633 0 0 0 -.065.283 42.735 42.735 0 0 0 -2.45 12.528v.031s0 .045 0 .067q-.033.833-.035 1.672v.084 16.427zm49.621-36.6c.4.679.792 1.367 1.154 2.068l.006.014c.346.669.665 1.351.97 2.037l.106.237h-45.027a39.381 39.381 0 0 1 2.327-4.5h40.377zm5.365 16.677h-51.324a39.244 39.244 0 0 1 1.822-8.821h47.706a39.494 39.494 0 0 1 1.795 8.82zm-51.485 8v-4.5h51.641v4.5zm43.664-28.322h-35.629a39.216 39.216 0 0 1 17.79-13.128 39.23 39.23 0 0 1 17.839 13.128zm-38.136-44.142a39.177 39.177 0 0 1 -2.228-4.334l-.017-.04h45.031a39.374 39.374 0 0 1 -2.326 4.5h-40.385zm45.952-16.695a39.285 39.285 0 0 1 -1.82 8.821h-47.711a39.48 39.48 0 0 1 -1.793-8.821zm-43.509 20.321h35.639a39.223 39.223 0 0 1 -17.79 13.134 39.224 39.224 0 0 1 -17.849-13.134zm30.164 18.228a53.34 53.34 0 0 0 -7.344-3.391 42.788 42.788 0 0 0 17.45-15.346 1.672 1.672 0 0 0 .251-.3 42.566 42.566 0 0 0 4.1-8.344 1.719 1.719 0 0 0 .071-.308 42.738 42.738 0 0 0 2.44-12.519v-.015-.033q.038-.891.039-1.79v-16.421h6.5v16.418a48.744 48.744 0 0 1 -23.507 42.049z"/><path d="m58.188 15.418h2.812a1.75 1.75 0 0 0 0-3.5h-2.812a1.75 1.75 0 0 0 0 3.5z"/></g></g></svg>