<?xml version="1.0"?>
<svg xmlns="http://www.w3.org/2000/svg" viewBox="0 0 64 64" width="512" height="512"><g fill="#fceba6"><path d="m16 11-4 8h4v3h1v11h8v-11h1v-3h4l-4-8z"/><circle cx="21" cy="7" r="4"/><path d="m52 19-4-8h-10l-4 8h4l-2 6h3v8h8v-8h3l-2-6z"/><circle cx="43" cy="7" r="4"/><path d="m30 45h-8l-3 6h3v9h8v-9h3z"/><circle cx="26" cy="42" r="3"/></g><circle cx="8" cy="8" fill="#7cd7f7" r="5"/><circle cx="8" cy="26" fill="#7cd7f7" r="5"/><circle cx="56" cy="8" fill="#60a6bf" r="5"/><circle cx="56" cy="26" fill="#60a6bf" r="5"/><circle cx="41" cy="56" fill="#60a6bf" r="5"/><circle cx="41" cy="42" fill="#7cd7f7" r="5"/><path d="m21.105 44.553-3 6a1 1 0 0 0 .895 1.447h2v8a1 1 0 0 0 1 1h8a1 1 0 0 0 1-1v-8h2a1 1 0 0 0 .9-1.447l-3-6a1 1 0 0 0 -.9-.553h-.556a3.959 3.959 0 0 0 .556-2 4 4 0 0 0 -8 0 3.959 3.959 0 0 0 .556 2h-.556a1 1 0 0 0 -.895.553zm1.895 10.447h2v4h-2zm6 4h-2v-4h2zm2.382-9h-.836l-.991-1.541-1.682 1.082 1.127 1.752v1.707h-6v-1.707l1.127-1.752-1.682-1.082-.991 1.541h-.836l2-4h6.764zm-7.382-8a2 2 0 1 1 2 2 2 2 0 0 1 -2-2z"/><path d="m7 11h2v-2h2v-2h-2v-2h-2v2h-2v2h2z"/><path d="m7 29h2v-2h2v-2h-2v-2h-2v2h-2v2h2z"/><path d="m8 14a6 6 0 1 0 -6-6 6.006 6.006 0 0 0 6 6zm0-10a4 4 0 1 1 -4 4 4 4 0 0 1 4-4z"/><path d="m8 32a6 6 0 1 0 -6-6 6.006 6.006 0 0 0 6 6zm0-10a4 4 0 1 1 -4 4 4 4 0 0 1 4-4z"/><path d="m53 7h6v2h-6z"/><path d="m53 25h6v2h-6z"/><path d="m56 14a6 6 0 1 0 -6-6 6.006 6.006 0 0 0 6 6zm0-10a4 4 0 1 1 -4 4 4 4 0 0 1 4-4z"/><path d="m56 20a6 6 0 0 0 -5.447 3.5l-1.166-3.5h2.613a1 1 0 0 0 .9-1.447l-4-8a1 1 0 0 0 -.9-.553h-1.026a4.948 4.948 0 0 0 1.026-3 5 5 0 0 0 -10 0 4.948 4.948 0 0 0 1.026 3h-1.026a1 1 0 0 0 -.9.553l-4 8a1 1 0 0 0 .9 1.447h2.613l-1.561 4.684a1 1 0 0 0 .948 1.316h2v5h-12v-8a1 1 0 0 0 1-1v-2h3a1 1 0 0 0 .895-1.447l-4-8a1 1 0 0 0 -.895-.553h-1.026a4.948 4.948 0 0 0 1.026-3 5 5 0 0 0 -10 0 4.948 4.948 0 0 0 1.026 3h-1.026a1 1 0 0 0 -.895.553l-4 8a1 1 0 0 0 .895 1.447h3v2a1 1 0 0 0 1 1v10a1 1 0 0 0 1 1h8a1 1 0 0 0 1-1h5v7h2v-7h5a1 1 0 0 0 1 1h8a1 1 0 0 0 1-1v-7h2a6 6 0 1 0 6-6zm-38-13a3 3 0 1 1 3 3 3 3 0 0 1 -3-3zm-1.382 5h8.764l3 6h-1.8l-2-3.5-1.736.992 2.154 3.773v1.735h-8v-1.735l2.154-3.765-1.736-1-2 3.5h-1.8zm1.382 11h2v9h-2zm6 9h-2v-9h2zm16-25a3 3 0 1 1 3 3 3 3 0 0 1 -3-3zm0 19h2v6h-2zm6 6h-2v-6h2zm1-8h-9.612l1.529-4.589 2.237-3.911-1.736-1-2 3.5h-1.8l3-6h8.764l3 6h-1.8l-2-3.5-1.736.992 2.237 3.915 1.529 4.593zm9 6a4 4 0 1 1 4-4 4 4 0 0 1 -4 4z"/><path d="m38 55h6v2h-6z"/><path d="m41 62a6 6 0 1 0 -6-6 6.006 6.006 0 0 0 6 6zm0-10a4 4 0 1 1 -4 4 4 4 0 0 1 4-4z"/><path d="m40 45h2v-2h2v-2h-2v-2h-2v2h-2v2h2z"/><path d="m41 48a6 6 0 1 0 -6-6 6.006 6.006 0 0 0 6 6zm0-10a4 4 0 1 1 -4 4 4 4 0 0 1 4-4z"/></svg>
