<svg height="512" viewBox="0 0 64 64" width="512" xmlns="http://www.w3.org/2000/svg"><g id="Fill_Outline" data-name="Fill Outline"><path d="m60.79 23.87a6 6 0 0 0 -7.34-4.25l-9.66 2.59-.79-2.9-14.93 6.08-4.5 6.38 25.43-6.77a6 6 0 0 0 7.53 6.27 6 6 0 0 0 4.26-7.4zm-5.27 3.48a2 2 0 1 1 1.41-2.45 2 2 0 0 1 -1.41 2.45z" fill="#656b76"/><path d="m5 30h28v4h-28z" fill="#fcbc04"/><path d="m8 22h22v4h-22z" fill="#a1d51c"/><path d="m8 38h22v4h-22z" fill="#a1d51c"/><path d="m8 55h22v4h-22z" fill="#fcbc04"/><path d="m8 5h22v4h-22z" fill="#fcbc04"/><path d="m13 5h11a0 0 0 0 1 0 0 2 2 0 0 1 -2 2h-7a2 2 0 0 1 -2-2 0 0 0 0 1 0 0z" fill="#f9e109"/><path d="m13 55h11a0 0 0 0 1 0 0 2 2 0 0 1 -2 2h-7a2 2 0 0 1 -2-2 0 0 0 0 1 0 0z" fill="#f9e109"/><path d="m10 30h17a0 0 0 0 1 0 0 2 2 0 0 1 -2 2h-13a2 2 0 0 1 -2-2 0 0 0 0 1 0 0z" fill="#f9e109"/><path d="m14 22h10a0 0 0 0 1 0 0 2 2 0 0 1 -2 2h-6a2 2 0 0 1 -2-2 0 0 0 0 1 0 0z" fill="#c4f236"/><path d="m13 38h12a0 0 0 0 1 0 0 2 2 0 0 1 -2 2h-8a2 2 0 0 1 -2-2 0 0 0 0 1 0 0z" fill="#c4f236"/><path d="m22.68 48.5c3.92-2.39 12.32-8.5 12.32-16.5s-8.4-14.11-12.32-16.5c3.23-1.98 9.52-6.5 11.61-12.5h-4.29c-2.9 5.78-11 10-11 10s-8.07-4.22-11-10h-4.29c2.09 6 8.38 10.52 11.61 12.5-3.92 2.39-12.32 8.5-12.32 16.5s8.4 14.11 12.32 16.5c-3.23 1.98-9.52 6.5-11.61 12.5h4.29c2.9-5.78 11-10 11-10s8.07 4.22 11 10h4.32c-2.12-6-8.41-10.52-11.64-12.5zm-15.68-16.5c0-7.73 12-14 12-14s12 6.27 12 14-12 14-12 14-12-6.27-12-14z" fill="#57b7eb"/><path d="m20 12.44a1.93 1.93 0 0 0 2 0c2.25-1.34 7.7-4.91 10-9.44h-2c-2.28 4.54-7.73 8.11-10 9.43z" fill="#4891d3"/><path d="m20 45.43a1.91 1.91 0 0 0 2 0c2.85-1.68 11-7.06 11-13.43s-8.15-11.75-11-13.44a1.91 1.91 0 0 0 -2 0c2.88 1.7 11 7.07 11 13.43s-8.12 11.74-11 13.44z" fill="#4891d3"/><path d="m17.32 48.5c-3.92-2.39-12.32-8.5-12.32-16.5s8.4-14.11 12.32-16.5c-3.23-1.98-9.52-6.5-11.61-12.5h-2c2.09 6 8.38 10.52 11.61 12.5-3.92 2.39-12.32 8.5-12.32 16.5s8.4 14.11 12.32 16.5c-3.23 1.98-9.52 6.5-11.61 12.5h2c2.09-6 8.38-10.52 11.61-12.5z" fill="#4891d3"/><path d="m22 51.57a1.93 1.93 0 0 0 -2 0c2.24 1.32 7.69 4.89 10 9.43h2c-2.3-4.53-7.75-8.1-10-9.43z" fill="#4891d3"/><path d="m45.54 3.8a6 6 0 0 0 -8.19 2.2 6 6 0 0 0 4.1 9l-13.17 23 7.33-2.72 9.73-13-2.6-1.52 5-8.73a6.08 6.08 0 0 0 -2.2-8.23zm-4 7a2 2 0 0 1 -.73-2.8 2 2 0 0 1 2.73-.73 2 2 0 0 1 .74 2.75 2 2 0 0 1 -2.74.77z" fill="#d0d8da"/><ellipse cx="44.54" cy="8.03" fill="none" rx="2" ry="2.02"/><path d="m36.77 25.65 6.68-11.65a5.9 5.9 0 0 1 -2.88-1.41 6.14 6.14 0 0 1 -1.57-6.96 6 6 0 0 1 1.88-2.41 5.92 5.92 0 0 0 -3.53 2.78 6 6 0 0 0 4.1 9l-13.17 23 7.33-2.72 3.39-4.51a3.48 3.48 0 0 1 -2.23-5.12z" fill="#93999a"/><g fill="#1f2d51"><path d="m28.21 27c.2.28.38.57.55.86a1 1 0 0 0 1.37.37 1 1 0 0 0 .36-1.37 15.3 15.3 0 0 0 -1-1.54c-3.58-4.78-9.69-8-10-8.18a1 1 0 0 0 -.92 0c-.57.24-12.57 6.62-12.57 14.86s12 14.62 12.54 14.89a1 1 0 0 0 .46.11 1 1 0 0 0 .47-.12s1.16-.61 2.7-1.63a1 1 0 1 0 -1.1-1.67c-.88.58-1.62 1-2.07 1.28-.58-.33-1.66-1-2.92-1.86h6.8a1 1 0 0 0 0-2h-9.39a26.24 26.24 0 0 1 -2.1-2h12.35a1 1 0 0 0 0-2h-14a9 9 0 0 1 -1.74-5 6.64 6.64 0 0 1 .09-1h19.64a1 1 0 1 0 0-2h-19.06a11.31 11.31 0 0 1 1.12-2zm-9.21-7.86c.58.33 1.66 1 2.91 1.86h-2.79a1 1 0 0 0 0 2h5.38a26.24 26.24 0 0 1 2.1 2h-15.2a34.15 34.15 0 0 1 7.6-5.86z"/><path d="m19.46 50.11a1 1 0 0 0 -.92 0c-.34.18-8.39 4.44-11.4 10.44a1 1 0 1 0 1.78.9 18.63 18.63 0 0 1 4.58-5.45h11a26.24 26.24 0 0 1 2.1 2h-12.33a1 1 0 1 0 0 2h13.94a12.64 12.64 0 0 1 .87 1.45 1 1 0 0 0 .92.55.91.91 0 0 0 .45-.11 1 1 0 0 0 .44-1.34c-3.04-6-11.09-10.26-11.43-10.44zm-3.37 3.89c1.25-.88 2.33-1.53 2.91-1.86.58.33 1.66 1 2.91 1.86z"/><path d="m15.84 49.35a1 1 0 0 0 0-1.7c-3.56-2.18-11.84-8.06-11.84-15.65s8.28-13.47 11.84-15.65a1 1 0 0 0 0-1.7c-2.68-1.65-9.15-6.1-11.19-11.98a1 1 0 0 0 -1.27-.61 1 1 0 0 0 -.62 1.27c1.92 5.53 7.07 9.76 10.7 12.17-4.26 2.84-11.46 8.79-11.46 16.5s7.2 13.66 11.46 16.5c-3.63 2.41-8.78 6.64-10.7 12.17a1 1 0 0 0 .62 1.27 1 1 0 0 0 .33.06 1 1 0 0 0 .94-.67c2.04-5.88 8.51-10.33 11.19-11.98z"/><path d="m18.54 13.89a1 1 0 0 0 .92 0c.34-.18 8.39-4.44 11.4-10.44a1 1 0 1 0 -1.78-.9 18.63 18.63 0 0 1 -4.58 5.45h-11a26.24 26.24 0 0 1 -2.1-2h12.33a1 1 0 0 0 0-2h-13.94a12.64 12.64 0 0 1 -.87-1.45 1 1 0 1 0 -1.78.9c3.01 6 11.06 10.26 11.4 10.44zm3.37-3.89c-1.25.88-2.33 1.53-2.91 1.86-.58-.33-1.66-1-2.91-1.86z"/><path d="m11.27 33a1 1 0 1 0 0 2h14.15a1 1 0 0 0 0-2z"/><path d="m22.16 14.65a1 1 0 0 0 0 1.7 32.85 32.85 0 0 1 8.89 7.75 1 1 0 0 0 .8.41 1 1 0 0 0 .6-.2 1 1 0 0 0 .21-1.4 33.31 33.31 0 0 0 -8.12-7.41c3.63-2.41 8.78-6.64 10.7-12.17a1 1 0 0 0 -1.89-.66c-2.04 5.88-8.51 10.33-11.19 11.98z"/><path d="m24.54 48.5a33.88 33.88 0 0 0 7.92-7.17 1 1 0 0 0 -.18-1.41 1 1 0 0 0 -1.41.19 33.27 33.27 0 0 1 -8.71 7.54 1 1 0 0 0 0 1.7c2.68 1.64 9.15 6.1 11.19 12a1 1 0 0 0 .94.67 1 1 0 0 0 .33-.06 1 1 0 0 0 .62-1.27c-1.92-5.55-7.07-9.78-10.7-12.19z"/><path d="m45.14 10.49a3 3 0 0 0 -1.14-4.1 3 3 0 0 0 -3 5.2 3 3 0 0 0 1.5.4 3 3 0 0 0 2.64-1.5zm-3.14-.63a1 1 0 0 1 -.46-.61 1 1 0 0 1 .1-.76 1 1 0 0 1 .65-.49.75.75 0 0 1 .26 0 1 1 0 0 1 .49.14 1 1 0 0 1 .37 1.36 1 1 0 0 1 -.61.47 1 1 0 0 1 -.8-.11z"/><path d="m56.5 22.82a3 3 0 1 0 -.72 5.5 3 3 0 0 0 .72-5.5zm-.64 3.1a1 1 0 0 1 -.6.47 1 1 0 0 1 -.52-1.94 1.15 1.15 0 0 1 .26 0 1 1 0 0 1 .5.13 1 1 0 0 1 .46.61 1 1 0 0 1 -.1.73z"/><path d="m61.76 23.61a7 7 0 0 0 -8.57-4.95l-8.13 2.18-1-.55 4.5-7.8a7 7 0 1 0 -9.56 2.56 5.88 5.88 0 0 0 .91.44l-12.5 21.71a1 1 0 0 0 .1 1.15 1 1 0 0 0 .77.35 1 1 0 0 0 .34-.06l7.38-2.64a1 1 0 0 0 .45-.34l5.93-7.83 5.72-1.53a6.52 6.52 0 0 0 .19 1 7 7 0 0 0 6.71 5.12 7.11 7.11 0 0 0 1.82-.24 7 7 0 0 0 4.95-8.57zm-26.76 10.56-4.47 1.64 11.8-20.42a1 1 0 0 0 0-.92 1 1 0 0 0 -.73-.57 4.9 4.9 0 0 1 -1.6-.58 5 5 0 1 1 5-8.66 5 5 0 0 1 1.83 6.83l-5 8.66a1.05 1.05 0 0 0 -.1.76 1 1 0 0 0 .47.61l1.62.93zm24.34-6.25a5 5 0 0 1 -9.16-1.21 4.71 4.71 0 0 1 -.18-1.71 1 1 0 0 0 -.36-.85 1 1 0 0 0 -.9-.2l-4.46 1.2 1.84-2.42c0-.05 0-.11.07-.16l7.49-2a5 5 0 0 1 5.63 7.33z"/></g></g></svg>